<?xml version="1.0" encoding="utf-8"?>
<!-- Generator: Adobe Illustrator 17.1.0, SVG Export Plug-In . SVG Version: 6.00 Build 0)  -->
<!DOCTYPE svg PUBLIC "-//W3C//DTD SVG 1.1//EN" "http://www.w3.org/Graphics/SVG/1.1/DTD/svg11.dtd">
<svg version="1.1" id="Capa_1" xmlns="http://www.w3.org/2000/svg" xmlns:xlink="http://www.w3.org/1999/xlink" x="0px" y="0px"
	 viewBox="-1031.8 -26.3 876.5 792" enable-background="new -1031.8 -26.3 876.5 792" xml:space="preserve">
<g>
	<g>
		<path fill="#FFFFFF" d="M-995.7,555c-24.1,4.6-39.9,27.9-35.3,52c4.1,21.3,22.7,36.1,43.6,36.1c2.8,0,5.6-0.3,8.4-0.8l183-35.1
			c10.4-2,19.8-7.7,26.4-16l78.6-99.1l-26.3-13.4c-19.4-9.8-32.9-27.5-37.5-49.1l-74.1,93.5L-995.7,555z"/>
		<circle fill="#FFFFFF" cx="-343.7" cy="71.1" r="97.4"/>
		<path fill="#FFFFFF" d="M-556.4,46.7C-566.6,36.2-576.2,32-586.6,32c-3.8,0-7.6,0.6-11.6,1.5l-167.2,39.7
			c-23.1,5.5-37.3,28.7-31.9,51.7c4.7,19.8,22.3,33.1,41.8,33.1c3.3,0,6.7-0.4,10-1.2l142.5-33.7c9.2,10.3,55.6,60.5,64,69.3l0,0
			c-58.9,63-117.8,126-176.7,189.1c-0.9,1-1.8,2-2.6,3.1c-17.2,21.9-11.9,56.3,14,69.3l31.3,16l149.2,76.2l-93.7,151.9
			c-12.9,20.9-6.4,48.3,14.5,61.2c7.3,4.5,15.3,6.7,23.3,6.7l0,0c14.9,0,29.5-7.5,37.9-21.1l119.1-192.9c6.6-10.6,8.3-23.5,4.9-35.4
			c-3.4-12-11.6-22-22.8-27.6l-122.3-62.2l128.6-137.6l97.1,82.3c8,6.8,17.9,10.2,27.7,10.2c10.5,0,21.1-3.9,29.3-11.5L-169,266
			c17.4-16.2,18.4-43.4,2.2-60.7c-8.5-9.1-20-13.7-31.4-13.7c-10.4,0-21,3.8-29.2,11.5l-83.4,77.6
			C-310.9,280.7-519.9,84.2-556.4,46.7z"/>
	</g>
</g>
</svg>
