<?xml version="1.0" encoding="utf-8"?>
<!-- Generator: Adobe Illustrator 17.1.0, SVG Export Plug-In . SVG Version: 6.00 Build 0)  -->
<!DOCTYPE svg PUBLIC "-//W3C//DTD SVG 1.1//EN" "http://www.w3.org/Graphics/SVG/1.1/DTD/svg11.dtd">
<svg version="1.1" id="Layer_1" xmlns="http://www.w3.org/2000/svg" xmlns:xlink="http://www.w3.org/1999/xlink" x="0px" y="0px"
	 viewBox="128.4 93.5 792 605.1" enable-background="new 128.4 93.5 792 605.1" xml:space="preserve">
<g>
	<g>
		<g>
			<path fill="#FFFFFF" d="M249.6,93.5C249.5,93.5,249.5,93.5,249.6,93.5c-7.6,0-14.6,2.9-19.9,8.2c-5.4,5.4-8.3,12.5-8.3,20.1v425
				c0,15.6,12.7,28.3,28.4,28.3c66,0.2,176.5,13.9,252.7,93.7V224.1c0-5.3-1.3-10.2-3.9-14.4C435.9,108.9,315.7,93.6,249.6,93.5z"/>
			<path fill="#FFFFFF" d="M827.5,546.8v-425c0-7.6-3-14.7-8.3-20.1c-5.3-5.3-12.4-8.2-19.9-8.2c0,0,0,0-0.1,0
				c-66.1,0.2-186.4,15.5-249,116.2c-2.5,4.1-3.9,9.1-3.9,14.4v444.7c76.2-79.8,186.8-93.5,252.7-93.7
				C814.8,575.1,827.5,562.4,827.5,546.8z"/>
			<path fill="#FFFFFF" d="M892.1,191.5h-20.5v355.3c0,39.8-32.4,72.2-72.3,72.3c-56,0.1-148.2,11.1-213.6,72.9
				c113-27.7,232.1-9.7,300,5.8c8.5,1.9,17.2-0.1,24-5.5c6.8-5.4,10.7-13.5,10.7-22.1V219.8C920.4,204.2,907.7,191.5,892.1,191.5z"
				/>
			<path fill="#FFFFFF" d="M177.3,546.8V191.5h-20.5c-15.6,0-28.3,12.7-28.3,28.3v450.4c0,8.7,3.9,16.7,10.7,22.1
				c6.8,5.4,15.5,7.4,24,5.5c67.9-15.5,187-33.5,300-5.8c-65.3-61.8-157.6-72.8-213.6-72.9C209.7,619,177.3,586.6,177.3,546.8z"/>
		</g>
	</g>
</g>
</svg>
