<?xml version="1.0" encoding="utf-8"?>
<!-- Generator: Adobe Illustrator 17.1.0, SVG Export Plug-In . SVG Version: 6.00 Build 0)  -->
<!DOCTYPE svg PUBLIC "-//W3C//DTD SVG 1.1//EN" "http://www.w3.org/Graphics/SVG/1.1/DTD/svg11.dtd">
<svg version="1.1" id="Capa_1" xmlns="http://www.w3.org/2000/svg" xmlns:xlink="http://www.w3.org/1999/xlink" x="0px" y="0px"
	 viewBox="0 0 630.7 408.2" enable-background="new 0 0 630.7 408.2" xml:space="preserve">
<g>
	<defs>
		<rect id="SVGID_1_" x="-0.4" width="631.1" height="408.2"/>
	</defs>
	<clipPath id="SVGID_2_">
		<use xlink:href="#SVGID_1_"  overflow="visible"/>
	</clipPath>
	
		<linearGradient id="SVGID_3_" gradientUnits="userSpaceOnUse" x1="-327.0286" y1="608.6171" x2="-326.6857" y2="608.2742" gradientTransform="matrix(-495 0 0 539 -161011.3906 -327784.2188)">
		<stop  offset="0" style="stop-color:#C1531E"/>
		<stop  offset="1" style="stop-color:#CA9F44"/>
	</linearGradient>
	<polygon clip-path="url(#SVGID_2_)" fill="url(#SVGID_3_)" points="829.2,81.2 686.8,135.1 767.6,288.7 	"/>
	
		<linearGradient id="SVGID_4_" gradientUnits="userSpaceOnUse" x1="-325.8786" y1="607.7936" x2="-325.5253" y2="607.4403" gradientTransform="matrix(-362 0 0 585 -116814.1719 -355073.25)">
		<stop  offset="0" style="stop-color:#DDC964"/>
		<stop  offset="1" style="stop-color:#CDCB78"/>
	</linearGradient>
	<polygon clip-path="url(#SVGID_2_)" fill="url(#SVGID_4_)" points="1037.5,381.1 1061.6,408 1102.4,408 1102.4,369.5 1072.8,271.8 
			"/>
	
		<linearGradient id="SVGID_5_" gradientUnits="userSpaceOnUse" x1="-329.5688" y1="610.1712" x2="-329.2025" y2="609.8049" gradientTransform="matrix(-152 0 0 355 -49013.8477 -216224.8438)">
		<stop  offset="0" style="stop-color:#B4D1A6"/>
		<stop  offset="1" style="stop-color:#C0CE8E"/>
	</linearGradient>
	<polygon clip-path="url(#SVGID_2_)" fill="url(#SVGID_5_)" points="1037.5,381.1 1072.8,271.8 1029.2,244.4 	"/>
	
		<linearGradient id="SVGID_6_" gradientUnits="userSpaceOnUse" x1="-327.763" y1="610.1357" x2="-327.4247" y2="609.7974" gradientTransform="matrix(-214 0 0 388 -69039.8203 -236473.8438)">
		<stop  offset="0" style="stop-color:#B4D1A6"/>
		<stop  offset="1" style="stop-color:#AECEA1"/>
	</linearGradient>
	<polygon clip-path="url(#SVGID_2_)" fill="url(#SVGID_6_)" points="1072.8,271.8 1090.5,122.4 1029.2,244.4 	"/>
	
		<linearGradient id="SVGID_7_" gradientUnits="userSpaceOnUse" x1="-326.0606" y1="611.0848" x2="-325.7205" y2="610.7448" gradientTransform="matrix(-286 0 0 349 -92081.6875 -213053.8281)">
		<stop  offset="0" style="stop-color:#A7C898"/>
		<stop  offset="1" style="stop-color:#ABCB9D"/>
	</linearGradient>
	<polygon clip-path="url(#SVGID_2_)" fill="url(#SVGID_7_)" points="1102.4,146 1102.4,114.7 1090.5,122.4 	"/>
	
		<linearGradient id="SVGID_8_" gradientUnits="userSpaceOnUse" x1="-326.8408" y1="607.1263" x2="-326.5113" y2="606.7968" gradientTransform="matrix(-239 0 0 760 -76962.6953 -460953.7812)">
		<stop  offset="0" style="stop-color:#C7CD83"/>
		<stop  offset="1" style="stop-color:#B3D1A6"/>
	</linearGradient>
	<polygon clip-path="url(#SVGID_2_)" fill="url(#SVGID_8_)" points="1102.4,369.5 1102.4,238 1072.8,271.8 	"/>
	
		<linearGradient id="SVGID_9_" gradientUnits="userSpaceOnUse" x1="-327.3295" y1="610.2122" x2="-326.964" y2="609.8466" gradientTransform="matrix(-207 0 0 388 -66626.8203 -236473.8438)">
		<stop  offset="0" style="stop-color:#ACCD9E"/>
		<stop  offset="1" style="stop-color:#B4D1A6"/>
	</linearGradient>
	<polygon clip-path="url(#SVGID_2_)" fill="url(#SVGID_9_)" points="1072.8,271.8 1102.4,238 1102.4,146 1090.5,122.4 	"/>
	
		<linearGradient id="SVGID_10_" gradientUnits="userSpaceOnUse" x1="-327.7645" y1="611.0609" x2="-327.3843" y2="610.6807" gradientTransform="matrix(-214 0 0 339 -69039.8203 -206899.8281)">
		<stop  offset="0" style="stop-color:#A5C795"/>
		<stop  offset="1" style="stop-color:#A9CA9A"/>
	</linearGradient>
	<polygon clip-path="url(#SVGID_2_)" fill="url(#SVGID_10_)" points="1090.5,122.4 1042.1,113.9 1029.2,244.4 	"/>
	<polygon clip-path="url(#SVGID_2_)" fill="#DEDBC1" points="1047.7,113.9 964,0 894.1,0 829.2,81.2 	"/>
	
		<linearGradient id="SVGID_11_" gradientUnits="userSpaceOnUse" x1="-330.1333" y1="612.5449" x2="-329.8125" y2="612.2241" gradientTransform="matrix(-461 0 0 263 -151873.5469 -160841.8125)">
		<stop  offset="0" style="stop-color:#C46720"/>
		<stop  offset="1" style="stop-color:#CC701E"/>
	</linearGradient>
	<polygon clip-path="url(#SVGID_2_)" fill="url(#SVGID_11_)" points="270.9,173.2 155.8,222.5 288.4,274.5 	"/>
	
		<linearGradient id="SVGID_12_" gradientUnits="userSpaceOnUse" x1="-325.991" y1="615.6937" x2="-325.6049" y2="615.3077" gradientTransform="matrix(-286 0 0 213 -92081.6875 -130986.3047)">
		<stop  offset="0" style="stop-color:#A5C795"/>
		<stop  offset="1" style="stop-color:#A5C795"/>
	</linearGradient>
	<polygon clip-path="url(#SVGID_2_)" fill="url(#SVGID_12_)" points="1102.4,114.7 1102.4,108.2 1090.5,122.4 	"/>
	
		<linearGradient id="SVGID_13_" gradientUnits="userSpaceOnUse" x1="-325.4918" y1="615.5993" x2="-325.1269" y2="615.2344" gradientTransform="matrix(-411 0 0 213 -132625.1562 -130986.3047)">
		<stop  offset="0" style="stop-color:#A5C795"/>
		<stop  offset="1" style="stop-color:#A5C795"/>
	</linearGradient>
	<polygon clip-path="url(#SVGID_2_)" fill="url(#SVGID_13_)" points="1090.5,122.4 1102.4,108.2 1102.4,76.2 1042.1,113.9 	"/>
	<polygon clip-path="url(#SVGID_2_)" fill="#E3D884" points="1102.4,76.2 1102.4,19.3 1049.8,0 958.9,0 1042.1,113.9 	"/>
	
		<linearGradient id="SVGID_14_" gradientUnits="userSpaceOnUse" x1="-324.7285" y1="608.1768" x2="-324.4193" y2="607.8676" gradientTransform="matrix(-818 0 0 755 -264488.2188 -459114.7812)">
		<stop  offset="0" style="stop-color:#9CC7C3"/>
		<stop  offset="1" style="stop-color:#A1C7A6"/>
	</linearGradient>
	<polygon clip-path="url(#SVGID_2_)" fill="url(#SVGID_14_)" points="1102.4,0 1049.8,0 1102.4,19.3 	"/>
	
		<linearGradient id="SVGID_15_" gradientUnits="userSpaceOnUse" x1="-327.4453" y1="609.9595" x2="-327.0967" y2="609.611" gradientTransform="matrix(-468 0 0 399 -152476.5469 -243085.0938)">
		<stop  offset="0" style="stop-color:#C8C166"/>
		<stop  offset="1" style="stop-color:#DB9528"/>
	</linearGradient>
	<polygon clip-path="url(#SVGID_2_)" fill="url(#SVGID_15_)" points="767.6,288.7 686.8,135.1 633,258.3 	"/>
	
		<linearGradient id="SVGID_16_" gradientUnits="userSpaceOnUse" x1="-328.7746" y1="607.9393" x2="-328.4838" y2="607.6486" gradientTransform="matrix(-576 0 0 552 -189039.875 -335134.25)">
		<stop  offset="0" style="stop-color:#E4CA5F"/>
		<stop  offset="1" style="stop-color:#CC8E41"/>
	</linearGradient>
	<polygon clip-path="url(#SVGID_2_)" fill="url(#SVGID_16_)" points="150,401.5 162.5,408 305.6,408 288.4,274.5 	"/>
	
		<linearGradient id="SVGID_17_" gradientUnits="userSpaceOnUse" x1="-329.7859" y1="608.8431" x2="-329.4755" y2="608.5327" gradientTransform="matrix(-481 0 0 465 -158353.5469 -282721.625)">
		<stop  offset="0" style="stop-color:#9B714B"/>
		<stop  offset="1" style="stop-color:#B38D51"/>
	</linearGradient>
	<polygon clip-path="url(#SVGID_2_)" fill="url(#SVGID_17_)" points="288.4,274.5 155.8,222.5 150,401.5 	"/>
	
		<linearGradient id="SVGID_18_" gradientUnits="userSpaceOnUse" x1="-330.2652" y1="608.7863" x2="-329.9397" y2="608.4608" gradientTransform="matrix(-506 0 0 465 -166915.3906 -282721.625)">
		<stop  offset="0" style="stop-color:#A57652"/>
		<stop  offset="1" style="stop-color:#BBCC83"/>
	</linearGradient>
	<polygon clip-path="url(#SVGID_2_)" fill="url(#SVGID_18_)" points="155.8,222.5 10.1,292.6 150,401.5 	"/>
	
		<linearGradient id="SVGID_19_" gradientUnits="userSpaceOnUse" x1="-330.1512" y1="613.0529" x2="-329.8435" y2="612.7451" gradientTransform="matrix(-506 0 0 244 -166915.3906 -149299.3125)">
		<stop  offset="0" style="stop-color:#9C714A"/>
		<stop  offset="1" style="stop-color:#A1C68F"/>
	</linearGradient>
	<polygon clip-path="url(#SVGID_2_)" fill="url(#SVGID_19_)" points="12.1,198.6 10.1,292.6 155.8,222.5 	"/>
	
		<linearGradient id="SVGID_20_" gradientUnits="userSpaceOnUse" x1="-328.776" y1="610.0001" x2="-328.4498" y2="609.674" gradientTransform="matrix(-576 0 0 317 -189039.875 -192864.8281)">
		<stop  offset="0" style="stop-color:#E6CE68"/>
		<stop  offset="1" style="stop-color:#E5CC64"/>
	</linearGradient>
	<polygon clip-path="url(#SVGID_2_)" fill="url(#SVGID_20_)" points="154.4,408 162.5,408 150,401.5 	"/>
	
		<linearGradient id="SVGID_21_" gradientUnits="userSpaceOnUse" x1="-334.115" y1="606.949" x2="-333.7949" y2="606.629" gradientTransform="matrix(-291 0 0 686 -96984.6875 -415745.7812)">
		<stop  offset="0" style="stop-color:#BE8950"/>
		<stop  offset="1" style="stop-color:#E5CC65"/>
	</linearGradient>
	<polygon clip-path="url(#SVGID_2_)" fill="url(#SVGID_21_)" points="150.2,408 154.4,408 150,401.5 	"/>
	
		<linearGradient id="SVGID_22_" gradientUnits="userSpaceOnUse" x1="-327.6917" y1="607.9522" x2="-327.3493" y2="607.6099" gradientTransform="matrix(-645 0 0 552 -210845.7656 -335134.25)">
		<stop  offset="0" style="stop-color:#C1C977"/>
		<stop  offset="1" style="stop-color:#9F5534"/>
	</linearGradient>
	<polygon clip-path="url(#SVGID_2_)" fill="url(#SVGID_22_)" points="288.4,274.5 305.6,408 378.6,408 474.1,287.9 	"/>
	<polygon clip-path="url(#SVGID_2_)" fill="#C8C888" points="437.8,93.5 503.6,0 479.6,0 405.9,25.3 	"/>
	<polygon clip-path="url(#SVGID_2_)" fill="#F3F1E4" points="479.6,0 402,0 405.9,25.3 	"/>
	<polygon clip-path="url(#SVGID_2_)" fill="#F1F0EB" points="405.9,25.3 394.9,76.2 437.8,93.5 	"/>
	
		<linearGradient id="SVGID_23_" gradientUnits="userSpaceOnUse" x1="-389.9792" y1="614.4584" x2="-389.6638" y2="614.143" gradientTransform="matrix(-38 0 0 245 -14414.8613 -150466.3125)">
		<stop  offset="0" style="stop-color:#951E1D"/>
		<stop  offset="1" style="stop-color:#9C1E1D"/>
	</linearGradient>
	<polygon clip-path="url(#SVGID_2_)" fill="url(#SVGID_23_)" points="405.9,25.3 402,0 398.4,0 394.9,76.2 	"/>
	
		<linearGradient id="SVGID_24_" gradientUnits="userSpaceOnUse" x1="-329.9483" y1="606.8865" x2="-329.6539" y2="606.592" gradientTransform="matrix(-531 0 0 726 -175010.3906 -440045.7812)">
		<stop  offset="0" style="stop-color:#BB8444"/>
		<stop  offset="1" style="stop-color:#E2C85E"/>
	</linearGradient>
	<polygon clip-path="url(#SVGID_2_)" fill="url(#SVGID_24_)" points="4.4,386.1 16.3,408 150.2,408 150,401.5 	"/>
	
		<linearGradient id="SVGID_25_" gradientUnits="userSpaceOnUse" x1="-330.178" y1="611.3867" x2="-329.8406" y2="611.0493" gradientTransform="matrix(-506 0 0 283 -166935.3906 -172611.8125)">
		<stop  offset="0" style="stop-color:#C9CD7E"/>
		<stop  offset="1" style="stop-color:#BBCC83"/>
	</linearGradient>
	<polygon clip-path="url(#SVGID_2_)" fill="url(#SVGID_25_)" points="10.1,292.6 4.4,386.1 150,401.5 	"/>
	
		<linearGradient id="SVGID_26_" gradientUnits="userSpaceOnUse" x1="-329.8354" y1="612.7979" x2="-329.499" y2="612.4614" gradientTransform="matrix(-534 0 0 268 -175987.375 -164001.8125)">
		<stop  offset="0" style="stop-color:#9C714A"/>
		<stop  offset="1" style="stop-color:#A1C68F"/>
	</linearGradient>
	<polygon clip-path="url(#SVGID_2_)" fill="url(#SVGID_26_)" points="2.1,119.3 12.1,198.6 155.8,222.5 	"/>
	
		<linearGradient id="SVGID_27_" gradientUnits="userSpaceOnUse" x1="-325.8969" y1="609.7072" x2="-325.5636" y2="609.3738" gradientTransform="matrix(-362 0 0 341 -116814.1719 -207413.8281)">
		<stop  offset="0" style="stop-color:#DDC964"/>
		<stop  offset="1" style="stop-color:#DDC964"/>
	</linearGradient>
	<polygon clip-path="url(#SVGID_2_)" fill="url(#SVGID_27_)" points="1061.9,408 1067.3,408 1043.1,381.1 	"/>
	
		<linearGradient id="SVGID_28_" gradientUnits="userSpaceOnUse" x1="-324.7794" y1="609.6993" x2="-324.4356" y2="609.3555" gradientTransform="matrix(-421 0 0 341 -135572.1562 -207413.8281)">
		<stop  offset="0" style="stop-color:#DDC964"/>
		<stop  offset="1" style="stop-color:#DDC964"/>
	</linearGradient>
	<polygon clip-path="url(#SVGID_2_)" fill="url(#SVGID_28_)" points="1032.2,408 1061.9,408 1043.1,381.1 	"/>
	<polygon clip-path="url(#SVGID_2_)" fill="#CBD254" points="749.2,27.6 686.8,135.1 829.2,81.2 	"/>
	
		<linearGradient id="SVGID_29_" gradientUnits="userSpaceOnUse" x1="-331.9471" y1="610.7831" x2="-331.6147" y2="610.4506" gradientTransform="matrix(-209 0 0 414 -68625.8203 -252838.0938)">
		<stop  offset="0" style="stop-color:#9C1E1D"/>
		<stop  offset="1" style="stop-color:#961E1D"/>
	</linearGradient>
	<polygon clip-path="url(#SVGID_2_)" fill="url(#SVGID_29_)" points="740.6,0 737,0 749.2,27.6 	"/>
	<polygon clip-path="url(#SVGID_2_)" fill="#A9A32D" points="647.9,0 524.3,0 686.8,135.1 	"/>
	
		<linearGradient id="SVGID_30_" gradientUnits="userSpaceOnUse" x1="-331.9008" y1="611.8448" x2="-331.5916" y2="611.5356" gradientTransform="matrix(-209 0 0 352 -68625.8203 -215327.8281)">
		<stop  offset="0" style="stop-color:#8E1F1C"/>
		<stop  offset="1" style="stop-color:#8D1F1C"/>
	</linearGradient>
	<polygon clip-path="url(#SVGID_2_)" fill="url(#SVGID_30_)" points="749.2,27.6 737,0 706.9,0 710.9,24.2 	"/>
	<polygon clip-path="url(#SVGID_2_)" fill="#ECE8D6" points="710.9,24.2 686.8,135.1 749.2,27.6 	"/>
	
		<linearGradient id="SVGID_31_" gradientUnits="userSpaceOnUse" x1="-330.04" y1="611.9863" x2="-329.7113" y2="611.6576" gradientTransform="matrix(-291 0 0 343 -95326.6875 -209891.8281)">
		<stop  offset="0" style="stop-color:#901E1C"/>
		<stop  offset="1" style="stop-color:#831F1B"/>
	</linearGradient>
	<polygon clip-path="url(#SVGID_2_)" fill="url(#SVGID_31_)" points="706.9,0 689.9,0 710.9,24.2 	"/>
	
		<linearGradient id="SVGID_32_" gradientUnits="userSpaceOnUse" x1="-330.065" y1="609.1097" x2="-329.7206" y2="608.7653" gradientTransform="matrix(-291 0 0 538 -95326.6875 -327578.2188)">
		<stop  offset="0" style="stop-color:#C1531E"/>
		<stop  offset="1" style="stop-color:#901E1C"/>
	</linearGradient>
	<polygon clip-path="url(#SVGID_2_)" fill="url(#SVGID_32_)" points="710.9,24.2 689.9,0 647.9,0 686.8,135.1 	"/>
	<polygon clip-path="url(#SVGID_2_)" fill="#E3E03F" points="437.8,93.5 323.6,146.6 474.1,287.9 	"/>
	<polygon clip-path="url(#SVGID_2_)" fill="#C1A5A8" points="474.1,287.9 323.6,146.6 288.4,274.5 	"/>
	
		<linearGradient id="SVGID_33_" gradientUnits="userSpaceOnUse" x1="-330.0984" y1="617.0269" x2="-329.7681" y2="616.6965" gradientTransform="matrix(-397 0 0 183 -130619.1719 -112773.1797)">
		<stop  offset="0" style="stop-color:#994620"/>
		<stop  offset="1" style="stop-color:#BD5C20"/>
	</linearGradient>
	<polygon clip-path="url(#SVGID_2_)" fill="url(#SVGID_33_)" points="394.9,76.2 323.6,146.6 437.8,93.5 	"/>
	
		<linearGradient id="SVGID_34_" gradientUnits="userSpaceOnUse" x1="-333.6108" y1="610.1638" x2="-333.2358" y2="609.7888" gradientTransform="matrix(-263 0 0 428 -87337.6875 -261010.0938)">
		<stop  offset="0" style="stop-color:#961E1D"/>
		<stop  offset="1" style="stop-color:#AC3B1F"/>
	</linearGradient>
	<polygon clip-path="url(#SVGID_2_)" fill="url(#SVGID_34_)" points="394.9,76.2 398.4,0 390.9,0 323.6,146.6 	"/>
	
		<linearGradient id="SVGID_35_" gradientUnits="userSpaceOnUse" x1="-338.8913" y1="611.0009" x2="-338.5351" y2="610.6448" gradientTransform="matrix(-183 0 0 332 -61680.8359 -202586.8281)">
		<stop  offset="0" style="stop-color:#C46720"/>
		<stop  offset="1" style="stop-color:#DD9429"/>
	</linearGradient>
	<polygon clip-path="url(#SVGID_2_)" fill="url(#SVGID_35_)" points="323.6,146.6 270.9,173.2 288.4,274.5 	"/>
	
		<linearGradient id="SVGID_36_" gradientUnits="userSpaceOnUse" x1="-328.305" y1="607.7299" x2="-327.9981" y2="607.4231" gradientTransform="matrix(-362 0 0 577 -118029.1719 -350197.25)">
		<stop  offset="0" style="stop-color:#D9D37D"/>
		<stop  offset="1" style="stop-color:#C0D4A1"/>
	</linearGradient>
	<polygon clip-path="url(#SVGID_2_)" fill="url(#SVGID_36_)" points="693.4,360.7 726.2,408 783.7,408 767.6,288.7 	"/>
	
		<linearGradient id="SVGID_37_" gradientUnits="userSpaceOnUse" x1="-328.2794" y1="607.9239" x2="-327.9491" y2="607.5937" gradientTransform="matrix(-362 0 0 520 -118029.1719 -315582.125)">
		<stop  offset="0" style="stop-color:#D9D37D"/>
		<stop  offset="1" style="stop-color:#CCD38D"/>
	</linearGradient>
	<polygon clip-path="url(#SVGID_2_)" fill="url(#SVGID_37_)" points="708.2,408 726.2,408 693.4,360.7 	"/>
	
		<linearGradient id="SVGID_38_" gradientUnits="userSpaceOnUse" x1="-327.4913" y1="611.9962" x2="-327.1363" y2="611.6412" gradientTransform="matrix(-468 0 0 266 -152476.5469 -162432.8125)">
		<stop  offset="0" style="stop-color:#AACCA4"/>
		<stop  offset="1" style="stop-color:#B4B675"/>
	</linearGradient>
	<polygon clip-path="url(#SVGID_2_)" fill="url(#SVGID_38_)" points="693.4,360.7 767.6,288.7 633,258.3 	"/>
	
		<linearGradient id="SVGID_39_" gradientUnits="userSpaceOnUse" x1="-326.7798" y1="605.8991" x2="-326.4371" y2="605.5564" gradientTransform="matrix(-616 0 0 1128 -200469.7656 -682814.5)">
		<stop  offset="0" style="stop-color:#D9D37D"/>
		<stop  offset="1" style="stop-color:#BBA277"/>
	</linearGradient>
	<polygon clip-path="url(#SVGID_2_)" fill="url(#SVGID_39_)" points="680.9,408 708.2,408 693.4,360.7 	"/>
	
		<linearGradient id="SVGID_40_" gradientUnits="userSpaceOnUse" x1="-326.2961" y1="611.9361" x2="-325.9679" y2="611.6079" gradientTransform="matrix(-762 0 0 266 -247886.2344 -162432.8125)">
		<stop  offset="0" style="stop-color:#B5A75B"/>
		<stop  offset="1" style="stop-color:#A2916F"/>
	</linearGradient>
	<polygon clip-path="url(#SVGID_2_)" fill="url(#SVGID_40_)" points="474.1,287.9 693.4,360.7 633,258.3 	"/>
	
		<linearGradient id="SVGID_41_" gradientUnits="userSpaceOnUse" x1="-328.0971" y1="608.6679" x2="-327.7426" y2="608.3134" gradientTransform="matrix(-335 0 0 539 -109050.1797 -327784.2188)">
		<stop  offset="0" style="stop-color:#C46720"/>
		<stop  offset="1" style="stop-color:#BA8947"/>
	</linearGradient>
	<polygon clip-path="url(#SVGID_2_)" fill="url(#SVGID_41_)" points="864.1,244.4 829.2,81.2 767.6,288.7 	"/>
	
		<linearGradient id="SVGID_42_" gradientUnits="userSpaceOnUse" x1="-328.1762" y1="607.2805" x2="-327.8463" y2="606.9506" gradientTransform="matrix(-335 0 0 692 -109050.1797 -419777.7812)">
		<stop  offset="0" style="stop-color:#C3D18E"/>
		<stop  offset="1" style="stop-color:#A79574"/>
	</linearGradient>
	<polygon clip-path="url(#SVGID_2_)" fill="url(#SVGID_42_)" points="767.6,288.7 783.7,408 823.3,408 864.1,244.4 	"/>
	
		<linearGradient id="SVGID_43_" gradientUnits="userSpaceOnUse" x1="-325.2433" y1="609.8411" x2="-324.8843" y2="609.4821" gradientTransform="matrix(-759 0 0 424 -245783.2344 -258326.0938)">
		<stop  offset="0" style="stop-color:#A3C898"/>
		<stop  offset="1" style="stop-color:#9F5538"/>
	</linearGradient>
	<polygon clip-path="url(#SVGID_2_)" fill="url(#SVGID_43_)" points="1047.7,113.9 829.2,81.2 864.1,244.4 	"/>
	<polygon clip-path="url(#SVGID_2_)" fill="#E9E6D6" points="1034.7,244.4 1047.7,113.9 864.1,244.4 	"/>
	
		<linearGradient id="SVGID_44_" gradientUnits="userSpaceOnUse" x1="-325.5916" y1="610.0653" x2="-325.2552" y2="609.7289" gradientTransform="matrix(-622 0 0 355 -201416.7656 -216224.8438)">
		<stop  offset="0" style="stop-color:#C7CD83"/>
		<stop  offset="1" style="stop-color:#A99370"/>
	</linearGradient>
	<polygon clip-path="url(#SVGID_2_)" fill="url(#SVGID_44_)" points="864.1,244.4 1043.1,381.1 1034.7,244.4 	"/>
	
		<linearGradient id="SVGID_45_" gradientUnits="userSpaceOnUse" x1="-325.5237" y1="608.1317" x2="-325.1915" y2="607.7996" gradientTransform="matrix(-622 0 0 542 -201416.7656 -329172.2188)">
		<stop  offset="0" style="stop-color:#C0C87C"/>
		<stop  offset="1" style="stop-color:#B38E54"/>
	</linearGradient>
	<polygon clip-path="url(#SVGID_2_)" fill="url(#SVGID_45_)" points="864.1,244.4 981.6,408 1032.2,408 1043.1,381.1 	"/>
	
		<linearGradient id="SVGID_46_" gradientUnits="userSpaceOnUse" x1="-325.9544" y1="607.8516" x2="-325.6199" y2="607.517" gradientTransform="matrix(-521 0 0 586 -168793.3906 -355748.25)">
		<stop  offset="0" style="stop-color:#DDC964"/>
		<stop  offset="1" style="stop-color:#C78E46"/>
	</linearGradient>
	<polygon clip-path="url(#SVGID_2_)" fill="url(#SVGID_46_)" points="968.6,408 981.6,408 864.1,244.4 	"/>
	
		<linearGradient id="SVGID_47_" gradientUnits="userSpaceOnUse" x1="-325.3991" y1="607.3275" x2="-325.0577" y2="606.986" gradientTransform="matrix(-732 0 0 692 -237172.2344 -419777.7812)">
		<stop  offset="0" style="stop-color:#DBC863"/>
		<stop  offset="1" style="stop-color:#C48F49"/>
	</linearGradient>
	<polygon clip-path="url(#SVGID_2_)" fill="url(#SVGID_47_)" points="823.3,408 968.6,408 864.1,244.4 	"/>
	<polygon clip-path="url(#SVGID_2_)" fill="#E4D35A" points="270.9,173.2 235.9,0 186.6,0 155.8,222.5 	"/>
	<polygon clip-path="url(#SVGID_2_)" fill="#8F885A" points="155.8,222.5 186.6,0 94.6,0 2.1,119.3 	"/>
	<polygon clip-path="url(#SVGID_2_)" fill="#F3F0D7" points="94.6,0 -0.4,0 2.1,119.3 	"/>
	
		<linearGradient id="SVGID_48_" gradientUnits="userSpaceOnUse" x1="-329.6453" y1="608.1237" x2="-329.2883" y2="607.7667" gradientTransform="matrix(-449 0 0 711 -147600.5469 -432218.7812)">
		<stop  offset="0" style="stop-color:#6F1D17"/>
		<stop  offset="1" style="stop-color:#82572F"/>
	</linearGradient>
	<polygon opacity="0.7" clip-path="url(#SVGID_2_)" fill="url(#SVGID_48_)" points="390.9,0 294.9,0 323.6,146.6 	"/>
	
		<linearGradient id="SVGID_49_" gradientUnits="userSpaceOnUse" x1="-338.5239" y1="607.8251" x2="-338.2043" y2="607.5054" gradientTransform="matrix(-186 0 0 780 -62652.8359 -473892.2812)">
		<stop  offset="0" style="stop-color:#C1531E"/>
		<stop  offset="1" style="stop-color:#9D5F2F"/>
	</linearGradient>
	<polygon clip-path="url(#SVGID_2_)" fill="url(#SVGID_49_)" points="323.6,146.6 294.9,0 270.4,0 270.9,173.2 	"/>
	
		<linearGradient id="SVGID_50_" gradientUnits="userSpaceOnUse" x1="-336.8007" y1="607.5778" x2="-336.4644" y2="607.2414" gradientTransform="matrix(-223 0 0 825 -74823.6953 -501119.8125)">
		<stop  offset="0" style="stop-color:#C2521E"/>
		<stop  offset="1" style="stop-color:#6E6158"/>
	</linearGradient>
	<polygon clip-path="url(#SVGID_2_)" fill="url(#SVGID_50_)" points="270.4,0 235.9,0 270.9,173.2 	"/>
	
		<linearGradient id="SVGID_51_" gradientUnits="userSpaceOnUse" x1="-325.6649" y1="605.8301" x2="-325.378" y2="605.5432" gradientTransform="matrix(-1165 0 0 1128 -378563.625 -682814.5)">
		<stop  offset="0" style="stop-color:#C8C166"/>
		<stop  offset="1" style="stop-color:#D29540"/>
	</linearGradient>
	<polygon clip-path="url(#SVGID_2_)" fill="url(#SVGID_51_)" points="611.9,408 680.9,408 693.4,360.7 	"/>
	
		<linearGradient id="SVGID_52_" gradientUnits="userSpaceOnUse" x1="-325.584" y1="607.1567" x2="-325.2675" y2="606.8403" gradientTransform="matrix(-1165 0 0 694 -378563.625 -420872.7812)">
		<stop  offset="0" style="stop-color:#B3A55C"/>
		<stop  offset="1" style="stop-color:#BF742B"/>
	</linearGradient>
	<polygon clip-path="url(#SVGID_2_)" fill="url(#SVGID_52_)" points="474.1,287.9 422,408 611.9,408 693.4,360.7 	"/>
	
		<linearGradient id="SVGID_53_" gradientUnits="userSpaceOnUse" x1="-328.333" y1="607.1126" x2="-328.046" y2="606.8256" gradientTransform="matrix(-550 0 0 694 -180065.375 -420872.7812)">
		<stop  offset="0" style="stop-color:#C27034"/>
		<stop  offset="1" style="stop-color:#E5CB61"/>
	</linearGradient>
	<polygon clip-path="url(#SVGID_2_)" fill="url(#SVGID_53_)" points="378.6,408 422,408 474.1,287.9 	"/>
	
		<linearGradient id="SVGID_54_" gradientUnits="userSpaceOnUse" x1="-333.0012" y1="611.3852" x2="-332.5374" y2="610.9213" gradientTransform="matrix(-204 0 0 320 -67222.8203 -195368.8281)">
		<stop  offset="0" style="stop-color:#E09C2B"/>
		<stop  offset="1" style="stop-color:#DEA32D"/>
	</linearGradient>
	<polygon clip-path="url(#SVGID_2_)" fill="url(#SVGID_54_)" points="686.8,135.1 628.1,236.3 633,258.3 	"/>
	<polygon clip-path="url(#SVGID_2_)" fill="#F3E639" points="686.8,135.1 524.3,0 516.3,0 628.1,236.3 	"/>
	
		<linearGradient id="SVGID_55_" gradientUnits="userSpaceOnUse" x1="-327.5469" y1="619.7461" x2="-327.1683" y2="619.3676" gradientTransform="matrix(-552 0 0 134 -180161.375 -82761.1484)">
		<stop  offset="0" style="stop-color:#D08626"/>
		<stop  offset="1" style="stop-color:#C76F20"/>
	</linearGradient>
	<polygon clip-path="url(#SVGID_2_)" fill="url(#SVGID_55_)" points="633,258.3 628.1,236.3 474.1,287.9 	"/>
	<polygon opacity="0.7" clip-path="url(#SVGID_2_)" fill="#C5CB3E" points="628.1,236.3 516.3,0 503.6,0 437.8,93.5 	"/>
	<polygon clip-path="url(#SVGID_2_)" fill="#E0CCCE" points="628.1,236.3 437.8,93.5 474.1,287.9 	"/>
	
		<linearGradient id="SVGID_56_" gradientUnits="userSpaceOnUse" x1="-329.2334" y1="608.6811" x2="-328.9206" y2="608.3683" gradientTransform="matrix(-278 0 0 633 -90703.6875 -385198.75)">
		<stop  offset="0" style="stop-color:#9B1E1D"/>
		<stop  offset="1" style="stop-color:#88473E"/>
	</linearGradient>
	<polygon clip-path="url(#SVGID_2_)" fill="url(#SVGID_56_)" points="829.2,81.2 824.6,0 758.8,0 749.2,27.6 	"/>
	
		<linearGradient id="SVGID_57_" gradientUnits="userSpaceOnUse" x1="-327.6739" y1="609.9285" x2="-327.3216" y2="609.5762" gradientTransform="matrix(-402 0 0 494 -130927.1562 -301237.125)">
		<stop  offset="0" style="stop-color:#951E1D"/>
		<stop  offset="1" style="stop-color:#914A3E"/>
	</linearGradient>
	<polygon clip-path="url(#SVGID_2_)" fill="url(#SVGID_57_)" points="758.8,0 740.6,0 749.2,27.6 	"/>
	
		<linearGradient id="SVGID_58_" gradientUnits="userSpaceOnUse" x1="-326.9529" y1="608.6937" x2="-326.6659" y2="608.4067" gradientTransform="matrix(-400 0 0 633 -129879.1562 -385198.75)">
		<stop  offset="0" style="stop-color:#A2C89B"/>
		<stop  offset="1" style="stop-color:#95866E"/>
	</linearGradient>
	<polygon clip-path="url(#SVGID_2_)" fill="url(#SVGID_58_)" points="894.1,0 824.6,0 829.2,81.2 	"/>
	<polygon clip-path="url(#SVGID_2_)" fill="#D0682D" points="13.3,408.2 14.7,408.2 147.9,408.2 152.1,408.2 160.2,408.2 
		302.5,408.2 375.1,408.2 418.2,408.2 607.1,408.2 675.8,408.2 702.9,408.2 720.8,408.2 778,408.2 817.4,408.2 961.9,408.2 
		974.9,408.2 1025.2,408.2 1054.8,408.2 1060.1,408.2 1100.9,408.2 1100.9,369.7 1100.9,238.2 1100.9,146.1 1100.9,114.9 
		1100.9,108.4 1100.9,76.4 1100.9,19.5 1100.9,0.2 1048.3,0.2 957.4,0.2 887.9,0.2 818.7,0.2 753.3,0.2 735.2,0.2 731.5,0.2 
		701.7,0.2 684.7,0.2 643,0.2 520,0.2 512.1,0.2 499.4,0.2 475.5,0.2 398.4,0.2 394.8,0.2 387.3,0.2 291.8,0.2 267.4,0.2 233.1,0.2 
		184.1,0.2 92.6,0.2 -1.9,0.2 -1.9,0.2 -1.9,115.6 -1.9,122 -1.9,195.2 -1.9,274.8 -1.9,292.4 -1.9,380.5 -1.9,392.3 -1.9,399.3 
		-1.9,408.2 	"/>
</g>
<g>
	<rect x="-59.2" y="-14.5" width="23.8" height="31.1"/>
	<rect x="-35.4" y="-14.5" fill="#009DE0" width="23.8" height="31.1"/>
	<rect x="-83" y="-14.3" fill="#FFED00" width="23.8" height="31.1"/>
	<rect x="-59.2" y="331.8" width="23.8" height="61.9"/>
	<rect x="-35.4" y="331.8" fill="#009DE0" stroke="#009DE0" stroke-miterlimit="10" width="23.8" height="61.9"/>
	<rect x="-83" y="331.8" fill="#FFED00" width="23.8" height="61.9"/>
</g>
<rect x="275.2" y="92.6" fill="none" width="335.8" height="38.9"/>
<text transform="matrix(1 0 0 1 275.1699 129.2973)"><tspan x="0" y="0" fill="#FFFFFF" font-family="'Rockwell'" font-size="53.9827">Hector</tspan><tspan x="167" y="0" fill="#FFFFFF" font-family="'Rockwell'" font-size="43.2066"> </tspan></text>
<rect x="273.4" y="62.5" fill="none" width="197.6" height="43"/>
<text transform="matrix(1 0 0 1 273.3559 85.7275)" fill="#FFFFFF" font-family="'Rockwell'" font-size="34.2068">concejal</text>
<g>
	<rect x="366.8" y="8.1" fill="none" width="150.7" height="39.3"/>
	<text transform="matrix(1 0 0 1 366.831 17.9062)" fill="#FFFFFF" font-family="'Rockwell'" font-size="14.431">igualdad</text>
	<line fill="#FFFFFF" stroke="#F6F6F6" stroke-width="2" stroke-miterlimit="10" x1="433.5" y1="4.1" x2="433.5" y2="27.7"/>
	<rect x="442.2" y="8.9" fill="none" width="150.7" height="39.3"/>
	<text transform="matrix(1 0 0 1 442.1895 18.7148)" fill="#FFFFFF" font-family="'Rockwell'" font-size="14.431">2016</text>
</g>
<rect x="406.2" y="136.7" fill="none" width="255.6" height="38.9"/>
<text transform="matrix(1 0 0 1 406.207 173.3901)" fill="#FFFFFF" font-family="'Rockwell'" font-size="53.9827">Galindo</text>
<rect x="358.3" y="189.6" fill="none" width="253.6" height="40"/>
<text transform="matrix(1 0 0 1 358.3193 208.8628)" fill="#FFFFFF" font-family="'Rockwell'" font-size="28.3276">Vivir con Dignidad</text>
</svg>
